<svg id="Layer_1" data-name="Layer 1"
  xmlns="http://www.w3.org/2000/svg" height="100%" width="100%" viewBox="0 0 600 364.81">
  <defs>
    <style>.cls-1{fill:#ffc629;}.cls-2{fill:#fff;}</style>
  </defs>
  <path class="cls-1" d="M315.66,117.12l13.16-22.8H227.39a4.32,4.32,0,0,1-3.74-6.48L260,25a4.31,4.31,0,0,1,3.74-2.16H336.3A4.32,4.32,0,0,1,340,29.28l-14.41,25h57.65L355.43,6A12,12,0,0,0,345,0H255a12,12,0,0,0-10.4,6l-45,78a12,12,0,0,0,0,12L210,114.12a6,6,0,0,0,5.2,3Z"/>
  <path class="cls-1" d="M281.85,54.24h33.81l13.16-22.8H266.19L234.88,85.68H261.2L278.11,56.4A4.3,4.3,0,0,1,281.85,54.24Z"/>
  <path class="cls-1" d="M284.34,62.88l-13.16,22.8H372.61a4.32,4.32,0,0,1,3.74,6.48L340,155a4.3,4.3,0,0,1-3.74,2.16H263.69a4.32,4.32,0,0,1-3.74-6.48l14.41-25H216.72L244.57,174a12,12,0,0,0,10.4,6H345a12,12,0,0,0,10.4-6l45-78a12,12,0,0,0,0-12L390,65.88a6,6,0,0,0-5.2-3Z"/>
  <path class="cls-1" d="M333.81,148.56l31.32-54.24H338.8L321.89,123.6a4.3,4.3,0,0,1-3.74,2.16H284.34l-13.16,22.8Z"/>
  <path class="cls-2" d="M41.05,304.13q-2.28-1.11-13.39-5.41c-2.18-.84-3.94-1.56-5.28-2.19a29.72,29.72,0,0,1-4-2.26,9.05,9.05,0,0,1-2.91-2.91,7,7,0,0,1,2.29-9.4,12.53,12.53,0,0,1,7.39-2.26,27.27,27.27,0,0,1,17.94,6.84.52.52,0,0,0,.77-.11l5.38-8.2a.54.54,0,0,0-.11-.71,36.44,36.44,0,0,0-23.43-8.23q-9.85,0-16.38,5.31a16.39,16.39,0,0,0-6.52,13.22A18.86,18.86,0,0,0,4,294.55a17.44,17.44,0,0,0,2.88,5.14,19.37,19.37,0,0,0,4.65,3.92,43.16,43.16,0,0,0,5.58,3q2.67,1.19,6.56,2.5c.37.14.93.32,1.67.55,1.48.56,2.58,1,3.29,1.22s1.66.6,2.81,1A26.67,26.67,0,0,1,34,313.05c.58.3,1.27.68,2.08,1.14a7.79,7.79,0,0,1,1.77,1.29c.37.39.76.85,1.18,1.39a4.21,4.21,0,0,1,.83,1.7,8.48,8.48,0,0,1,.21,1.94,7.94,7.94,0,0,1-3.54,6.59Q33,329.74,27,329.74a30.63,30.63,0,0,1-11.83-2.08,31.13,31.13,0,0,1-8.89-5.77.52.52,0,0,0-.78.08L.09,329.83a.55.55,0,0,0,.09.71q11.15,9.68,26.78,9.68a35.16,35.16,0,0,0,10.86-1.56,21.35,21.35,0,0,0,7.85-4.3A18.53,18.53,0,0,0,50.25,328a19,19,0,0,0,1.56-7.67,18.76,18.76,0,0,0-1.39-7.56Q48.2,307.66,41.05,304.13Z"/>
  <path class="cls-2" d="M177.77,270.12H167.3a.53.53,0,0,0-.53.53v9.74h-.27a28.47,28.47,0,0,0-10.45-8.25,31.15,31.15,0,0,0-13.29-2.85A33.11,33.11,0,0,0,125.34,274a32.53,32.53,0,0,0-12.11,12.88,40.66,40.66,0,0,0-1.7,32.69,31.47,31.47,0,0,0,18,18.15,35.33,35.33,0,0,0,13.33,2.53,30.28,30.28,0,0,0,13.78-3.12,29.57,29.57,0,0,0,10.44-8.75h.21v10.44a.53.53,0,0,0,.53.53h10a.52.52,0,0,0,.52-.53V270.65A.52.52,0,0,0,177.77,270.12ZM165.32,315.2a22.77,22.77,0,0,1-5.07,7.77,23,23,0,0,1-7.43,4.93,22.78,22.78,0,0,1-8.88,1.77q-10.41,0-16.86-6.91t-6.46-17.52q0-11.39,6.7-18.39a22.22,22.22,0,0,1,16.76-7,21.65,21.65,0,0,1,9.16,2,22.28,22.28,0,0,1,7.36,5.38,25.41,25.41,0,0,1,4.82,8.08,27.92,27.92,0,0,1,1.77,10A26.23,26.23,0,0,1,165.32,315.2Z"/>
  <path class="cls-2" d="M228.62,299.12a.51.51,0,0,1,0-.63L253.43,271a.53.53,0,0,0-.39-.88H240.5a.53.53,0,0,0-.39.18l-33.92,37.58H206v-72.7a.52.52,0,0,0-.52-.52h-10.4a.52.52,0,0,0-.53.52V338.79a.53.53,0,0,0,.53.53h10.4a.52.52,0,0,0,.52-.53V323.9a.52.52,0,0,1,.14-.35l14.37-15.95h.21l20.38,31.48a.54.54,0,0,0,.44.24H253.4a.53.53,0,0,0,.44-.81Z"/>
  <path class="cls-2" d="M308.28,273.73a32,32,0,0,0-16.86-4.44,32.52,32.52,0,0,0-13.05,2.64,31.52,31.52,0,0,0-10.51,7.25,33.61,33.61,0,0,0-7,11.24,39.4,39.4,0,0,0-2.57,14.34A38.81,38.81,0,0,0,261,319.19a31.86,31.86,0,0,0,18.15,18.43,35.7,35.7,0,0,0,13.64,2.6,36.12,36.12,0,0,0,16.2-3.51,33.06,33.06,0,0,0,11.45-9.13.54.54,0,0,0-.08-.74l-7.26-6.2a.51.51,0,0,0-.73.06,26.36,26.36,0,0,1-8.06,6.37,24,24,0,0,1-11.11,2.53,22.23,22.23,0,0,1-15.61-5.79A23.63,23.63,0,0,1,270.19,309a.54.54,0,0,1,.53-.61h52.09a.52.52,0,0,0,.53-.44,29.28,29.28,0,0,0,.28-4.28,38.26,38.26,0,0,0-4-17.66A29.89,29.89,0,0,0,308.28,273.73Zm3.25,25.06H271a.55.55,0,0,1-.53-.65A22.78,22.78,0,0,1,277.92,285a20.94,20.94,0,0,1,14.12-5.1A18.53,18.53,0,0,1,305.47,285a23.46,23.46,0,0,1,6.59,13.11A.55.55,0,0,1,311.53,298.79Z"/>
  <path class="cls-2" d="M471.08,273.73a37.41,37.41,0,0,0-18.25-4.44A38.43,38.43,0,0,0,438.18,272a32.84,32.84,0,0,0-11.34,7.5,34,34,0,0,0-7.22,11.31,37.43,37.43,0,0,0-2.6,14,37,37,0,0,0,2.6,13.92A34.07,34.07,0,0,0,426.84,330a32.84,32.84,0,0,0,11.34,7.5,38.43,38.43,0,0,0,14.65,2.74,37.41,37.41,0,0,0,18.25-4.44,32.19,32.19,0,0,0,12.74-12.56,39.2,39.2,0,0,0,0-36.89A32.1,32.1,0,0,0,471.08,273.73Zm2.5,43.93a22.72,22.72,0,0,1-8.68,8.82,25.13,25.13,0,0,1-24.63-.21,22.88,22.88,0,0,1-8.58-9,26.06,26.06,0,0,1-3-12.46,26.64,26.64,0,0,1,3-12.56,22.52,22.52,0,0,1,8.54-9,25.34,25.34,0,0,1,24.74-.21,22.7,22.7,0,0,1,8.64,8.85,26.1,26.1,0,0,1,3.19,12.94A25.75,25.75,0,0,1,473.58,317.66Z"/>
  <path class="cls-2" d="M504.44,234.66h10.4a.53.53,0,0,1,.53.53V338.79a.52.52,0,0,1-.52.52h-10.4a.52.52,0,0,1-.52-.52V235.18A.53.53,0,0,1,504.44,234.66Z"/>
  <path class="cls-2" d="M599.47,234.66H589a.52.52,0,0,0-.52.52v45.21h-.21a28.72,28.72,0,0,0-6.56-6.1,28.33,28.33,0,0,0-8-3.75,32.11,32.11,0,0,0-9-1.25A33.57,33.57,0,0,0,551.21,272a31.94,31.94,0,0,0-10.76,7.5,34.86,34.86,0,0,0-7,11.41,39.32,39.32,0,0,0-2.57,14.23,38.34,38.34,0,0,0,2.64,14.37,31.52,31.52,0,0,0,18,18.15,35.24,35.24,0,0,0,13.32,2.53,31.12,31.12,0,0,0,9.48-1.42,28.13,28.13,0,0,0,8.08-4.06,29.78,29.78,0,0,0,6.39-6.39h.2v10.44a.53.53,0,0,0,.53.53h10a.53.53,0,0,0,.53-.53V235.18A.52.52,0,0,0,599.47,234.66ZM587,315.2a22.46,22.46,0,0,1-12.39,12.7,22.2,22.2,0,0,1-8.71,1.77q-10.41,0-16.86-6.91t-6.46-17.52q0-11.39,6.7-18.39a22.24,22.24,0,0,1,16.76-7,21,21,0,0,1,9,2,22.08,22.08,0,0,1,7.26,5.38,25.7,25.7,0,0,1,4.78,8.08,27.7,27.7,0,0,1,1.77,10A26.23,26.23,0,0,1,587,315.2Z"/>
  <path class="cls-2" d="M102.15,270.12H80.3a.52.52,0,0,1-.53-.52V245.79a.53.53,0,0,0-.58-.52l-10.47,1.14a.51.51,0,0,0-.47.52V269.6a.52.52,0,0,1-.52.52H60a.52.52,0,0,0-.52.53v8.94a.52.52,0,0,0,.52.53h7.77a.52.52,0,0,1,.52.52V318.7q0,21.53,18,21.52h16.45V329.39H88.24q-4.71,0-6.59-2.95T79.77,317V280.64a.52.52,0,0,1,.53-.52h21.85a.53.53,0,0,0,.53-.53v-8.94A.53.53,0,0,0,102.15,270.12Z"/>
  <path class="cls-2" d="M402,270.12h-10.4a.52.52,0,0,0-.52.53v9.05h-.28A29.44,29.44,0,0,0,380.16,272a33.12,33.12,0,0,0-13.22-2.67,31.91,31.91,0,0,0-28.63,16.9A36.12,36.12,0,0,0,334,303.71a37,37,0,0,0,2.64,14.06,31.39,31.39,0,0,0,7.18,10.89,32.63,32.63,0,0,0,10.65,6.87,34.26,34.26,0,0,0,13,2.47q14.79,0,23.46-10.55h.35v6.19a21.25,21.25,0,0,1-1.46,7.95,18.51,18.51,0,0,1-4.3,6.42,19.79,19.79,0,0,1-7.36,4.37A30.33,30.33,0,0,1,368,354H344.05a.52.52,0,0,0-.52.52v9.78a.52.52,0,0,0,.52.53h24.48a43.74,43.74,0,0,0,15.44-2.5,25.7,25.7,0,0,0,10.62-7.12,30.55,30.55,0,0,0,6-10.75,44.83,44.83,0,0,0,2-13.78v-60A.53.53,0,0,0,402,270.12Zm-16.89,50.35q-6.39,6.78-16.73,6.77a24.51,24.51,0,0,1-7.11-1,20.47,20.47,0,0,1-6.25-3.12,23.09,23.09,0,0,1-4.89-4.93,22,22,0,0,1-3.23-6.66,28.25,28.25,0,0,1-1.14-8.12,23.24,23.24,0,0,1,6.38-16.73A21.53,21.53,0,0,1,368.39,280a22.66,22.66,0,0,1,16.52,6.45q6.6,6.46,6.59,16.8T385.12,320.47Z"/>
</svg>